<?xml version="1.0" encoding="UTF-8" standalone="no"?>
<!DOCTYPE svg PUBLIC "-//W3C//DTD SVG 1.1//EN"
 "http://www.w3.org/Graphics/SVG/1.1/DTD/svg11.dtd">
<!-- Generated by graphviz version 2.43.0 (0)
 -->
<!-- Title: G Pages: 1 -->
<svg width="823pt" height="370pt"
 viewBox="0.00 0.00 823.28 369.98" xmlns="http://www.w3.org/2000/svg" xmlns:xlink="http://www.w3.org/1999/xlink">
<g id="graph0" class="graph" transform="scale(1 1) rotate(0) translate(4 365.98)">
<title>G</title>
<!-- less -->
<g id="node1" class="node">
<title>less</title>
<ellipse fill="none" stroke="white" cx="231.45" cy="-256.99" rx="71.34" ry="28.98"/>
<text text-anchor="middle" x="231.45" y="-249.49" font-family="Times,serif" font-size="30.00">*.less</text>
</g>
<!-- css -->
<g id="node5" class="node">
<title>css</title>
<ellipse fill="none" stroke="white" cx="436.75" cy="-259.99" rx="92.76" ry="28.98"/>
<text text-anchor="middle" x="436.75" y="-252.49" font-family="Times,serif" font-size="30.00">app.css</text>
</g>
<!-- less&#45;&gt;css -->
<g id="edge4" class="edge">
<title>less&#45;&gt;css</title>
<path fill="none" stroke="white" d="M302,-262.4C309.83,-262.08 317.67,-261.33 325.11,-259.99"/>
<path fill="none" stroke="white" d="M326.11,-259.99C328.79,-259.51 331.51,-259.08 334.25,-258.71"/>
<polygon fill="white" stroke="white" points="334.77,-262.17 344.3,-257.54 333.96,-255.22 334.77,-262.17"/>
</g>
<!-- js -->
<g id="node2" class="node">
<title>js</title>
<ellipse fill="none" stroke="white" cx="231.45" cy="-28.99" rx="46.84" ry="28.98"/>
<text text-anchor="middle" x="231.45" y="-21.49" font-family="Times,serif" font-size="30.00">*.js</text>
</g>
<!-- app -->
<g id="node3" class="node">
<title>app</title>
<ellipse fill="none" stroke="white" cx="436.75" cy="-109.99" rx="76.24" ry="28.98"/>
<text text-anchor="middle" x="436.75" y="-102.49" font-family="Times,serif" font-size="30.00">app.js</text>
</g>
<!-- js&#45;&gt;app -->
<g id="edge6" class="edge">
<title>js&#45;&gt;app</title>
<path fill="none" stroke="white" d="M272.47,-43.42C284.72,-49.3 297.48,-57.08 307.11,-66.99 320.14,-80.39 306.85,-101.02 325.11,-104.99"/>
<path fill="none" stroke="white" d="M326.11,-104.99C333.86,-106.68 341.98,-107.95 350.15,-108.89"/>
<polygon fill="white" stroke="white" points="349.82,-112.37 360.12,-109.89 350.52,-105.41 349.82,-112.37"/>
</g>
<!-- min -->
<g id="node4" class="node">
<title>min</title>
<ellipse fill="none" stroke="white" cx="690.83" cy="-177.99" rx="124.4" ry="28.98"/>
<text text-anchor="middle" x="690.83" y="-170.49" font-family="Times,serif" font-size="30.00">app.min.js</text>
</g>
<!-- app&#45;&gt;min -->
<g id="edge8" class="edge">
<title>app&#45;&gt;min</title>
<path fill="none" stroke="white" d="M489.49,-131.25C503.17,-138.09 517.43,-146.42 529.38,-155.99 539.24,-163.89 534.88,-176.12 547.38,-177.99"/>
<path fill="none" stroke="white" d="M548.38,-177.99C551.07,-178.39 553.8,-178.76 556.55,-179.1"/>
<polygon fill="white" stroke="white" points="556.3,-182.59 566.61,-180.17 557.04,-175.63 556.3,-182.59"/>
</g>
<!-- lessc -->
<g id="node6" class="node">
<title>lessc</title>
<ellipse fill="none" stroke="white" cx="231.45" cy="-332.99" rx="65.11" ry="28.98"/>
<text text-anchor="middle" x="231.45" y="-325.49" font-family="Times,serif" font-size="30.00">lessc</text>
</g>
<!-- lessc&#45;&gt;css -->
<g id="edge5" class="edge">
<title>lessc&#45;&gt;css</title>
<path fill="none" stroke="white" d="M280.83,-313.98C290.29,-308.79 299.59,-302.48 307.11,-294.99 319.51,-282.65 307.9,-263.09 325.11,-259.99"/>
</g>
<!-- rollup -->
<g id="node7" class="node">
<title>rollup</title>
<ellipse fill="none" stroke="white" cx="231.45" cy="-104.99" rx="75.82" ry="28.98"/>
<text text-anchor="middle" x="231.45" y="-97.49" font-family="Times,serif" font-size="30.00">rollup</text>
</g>
<!-- rollup&#45;&gt;app -->
<g id="edge7" class="edge">
<title>rollup&#45;&gt;app</title>
<path fill="none" stroke="white" d="M307.1,-102.21C313.23,-102.83 319.3,-103.73 325.11,-104.99"/>
</g>
<!-- gcc -->
<g id="node8" class="node">
<title>gcc</title>
<ellipse fill="none" stroke="white" cx="231.45" cy="-180.99" rx="48.58" ry="28.98"/>
<text text-anchor="middle" x="231.45" y="-173.49" font-family="Times,serif" font-size="30.00">gcc</text>
</g>
<!-- gcc&#45;&gt;min -->
<g id="edge9" class="edge">
<title>gcc&#45;&gt;min</title>
<path fill="none" stroke="white" d="M279.73,-175.93C341.61,-170.36 453.29,-163.92 547.38,-177.99"/>
<text text-anchor="middle" x="436.75" y="-183.99" font-family="Times,serif" font-size="30.00"> </text>
</g>
<!-- npm -->
<g id="node9" class="node">
<title>npm</title>
<ellipse fill="none" stroke="white" cx="59.4" cy="-180.99" rx="59.29" ry="28.98"/>
<text text-anchor="middle" x="59.4" y="-173.49" font-family="Times,serif" font-size="30.00">npm</text>
</g>
<!-- npm&#45;&gt;lessc -->
<g id="edge1" class="edge">
<title>npm&#45;&gt;lessc</title>
<path fill="none" stroke="white" d="M137.79,-180.99C163.22,-184.35 140.72,-274.24 155.79,-294.99 159.87,-300.6 165.02,-305.45 170.7,-309.61"/>
<polygon fill="white" stroke="white" points="169.06,-312.71 179.35,-315.23 172.87,-306.84 169.06,-312.71"/>
</g>
<!-- npm&#45;&gt;rollup -->
<g id="edge2" class="edge">
<title>npm&#45;&gt;rollup</title>
<path fill="none" stroke="white" d="M118.9,-179.42C124.95,-179.72 131.01,-180.23 136.79,-180.99"/>
<path fill="none" stroke="white" d="M137.79,-180.99C156.32,-183.44 142.77,-156.39 155.79,-142.99 159.95,-138.72 164.69,-134.83 169.72,-131.33"/>
<polygon fill="white" stroke="white" points="171.86,-134.12 178.41,-125.79 168.09,-128.22 171.86,-134.12"/>
</g>
<!-- npm&#45;&gt;gcc -->
<g id="edge3" class="edge">
<title>npm&#45;&gt;gcc</title>
<path fill="none" stroke="white" d="M137.79,-180.99C149.02,-182.47 161.08,-183.14 172.66,-183.33"/>
<polygon fill="white" stroke="white" points="172.66,-186.83 182.68,-183.38 172.7,-179.83 172.66,-186.83"/>
</g>
</g>
</svg>
