<?xml version="1.0" encoding="UTF-8" standalone="no"?>
<!DOCTYPE svg PUBLIC "-//W3C//DTD SVG 1.1//EN"
 "http://www.w3.org/Graphics/SVG/1.1/DTD/svg11.dtd">
<!-- Generated by graphviz version 2.43.0 (0)
 -->
<!-- Title: G Pages: 1 -->
<svg width="1022pt" height="446pt"
 viewBox="0.00 0.00 1022.01 445.98" xmlns="http://www.w3.org/2000/svg" xmlns:xlink="http://www.w3.org/1999/xlink">
<g id="graph0" class="graph" transform="scale(1 1) rotate(0) translate(4 441.98)">
<title>G</title>
<!-- less -->
<g id="node1" class="node">
<title>less</title>
<ellipse fill="none" stroke="black" cx="231.45" cy="-408.99" rx="71.34" ry="28.98"/>
<text text-anchor="middle" x="231.45" y="-401.49" font-family="Times,serif" font-size="30.00">*.less</text>
</g>
<!-- css -->
<g id="node6" class="node">
<title>css</title>
<ellipse fill="none" stroke="black" cx="436.75" cy="-408.99" rx="92.76" ry="28.98"/>
<text text-anchor="middle" x="436.75" y="-401.49" font-family="Times,serif" font-size="30.00">app.css</text>
</g>
<!-- less&#45;&gt;css -->
<g id="edge5" class="edge">
<title>less&#45;&gt;css</title>
<path fill="none" stroke="black" d="M302.55,-406.14C310.21,-406.68 317.85,-407.58 325.11,-408.99"/>
</g>
<!-- ts -->
<g id="node2" class="node">
<title>ts</title>
<ellipse fill="none" stroke="black" cx="231.45" cy="-180.99" rx="48.58" ry="28.98"/>
<text text-anchor="middle" x="231.45" y="-173.49" font-family="Times,serif" font-size="30.00">*.ts</text>
</g>
<!-- js -->
<g id="node3" class="node">
<title>js</title>
<ellipse fill="none" stroke="black" cx="436.75" cy="-161.99" rx="46.84" ry="28.98"/>
<text text-anchor="middle" x="436.75" y="-154.49" font-family="Times,serif" font-size="30.00">*.js</text>
</g>
<!-- ts&#45;&gt;js -->
<g id="edge7" class="edge">
<title>ts&#45;&gt;js</title>
<path fill="none" stroke="black" d="M279.81,-185.96C294.56,-186.19 310.72,-185.07 325.11,-180.99"/>
<path fill="none" stroke="black" d="M326.11,-180.99C343.59,-176.03 363.02,-172.15 380.61,-169.23"/>
<polygon fill="black" stroke="black" points="381.4,-172.65 390.73,-167.62 380.3,-165.73 381.4,-172.65"/>
</g>
<!-- app -->
<g id="node4" class="node">
<title>app</title>
<ellipse fill="none" stroke="black" cx="651.74" cy="-95.99" rx="76.24" ry="28.98"/>
<text text-anchor="middle" x="651.74" y="-88.49" font-family="Times,serif" font-size="30.00">app.js</text>
</g>
<!-- js&#45;&gt;app -->
<g id="edge9" class="edge">
<title>js&#45;&gt;app</title>
<path fill="none" stroke="black" d="M475.74,-145.48C492.44,-137.89 512.13,-128.47 529.38,-118.99 539.53,-113.41 539.95,-106.91 551.38,-104.99"/>
</g>
<!-- min -->
<g id="node5" class="node">
<title>min</title>
<ellipse fill="none" stroke="black" cx="889.56" cy="-38.99" rx="124.4" ry="28.98"/>
<text text-anchor="middle" x="889.56" y="-31.49" font-family="Times,serif" font-size="30.00">app.min.js</text>
</g>
<!-- app&#45;&gt;min -->
<g id="edge11" class="edge">
<title>app&#45;&gt;min</title>
<path fill="none" stroke="black" d="M696.43,-72.47C706.98,-66.41 718.1,-59.69 728.11,-52.99 736.53,-47.35 736.08,-40.47 746.11,-38.99"/>
</g>
<!-- lessc -->
<g id="node7" class="node">
<title>lessc</title>
<ellipse fill="none" stroke="black" cx="231.45" cy="-332.99" rx="65.11" ry="28.98"/>
<text text-anchor="middle" x="231.45" y="-325.49" font-family="Times,serif" font-size="30.00">lessc</text>
</g>
<!-- lessc&#45;&gt;css -->
<g id="edge6" class="edge">
<title>lessc&#45;&gt;css</title>
<path fill="none" stroke="black" d="M281.02,-351.81C290.46,-357.02 299.71,-363.38 307.11,-370.99 320.14,-384.39 306.77,-405.43 325.11,-408.99"/>
<path fill="none" stroke="black" d="M326.11,-408.99C328.78,-409.51 331.49,-409.97 334.23,-410.38"/>
<polygon fill="black" stroke="black" points="333.91,-413.86 344.26,-411.63 334.77,-406.92 333.91,-413.86"/>
</g>
<!-- rollup -->
<g id="node8" class="node">
<title>rollup</title>
<ellipse fill="none" stroke="black" cx="231.45" cy="-104.99" rx="75.82" ry="28.98"/>
<text text-anchor="middle" x="231.45" y="-97.49" font-family="Times,serif" font-size="30.00">rollup</text>
</g>
<!-- rollup&#45;&gt;app -->
<g id="edge10" class="edge">
<title>rollup&#45;&gt;app</title>
<path fill="none" stroke="black" d="M305.22,-111.79C370.23,-116.25 467.83,-118.99 551.38,-104.99"/>
<path fill="none" stroke="black" d="M553.38,-104.99C557.72,-104.2 562.19,-103.48 566.71,-102.82"/>
<polygon fill="black" stroke="black" points="567.22,-106.28 576.66,-101.47 566.28,-99.34 567.22,-106.28"/>
</g>
<!-- gcc -->
<g id="node9" class="node">
<title>gcc</title>
<ellipse fill="none" stroke="black" cx="231.45" cy="-28.99" rx="48.58" ry="28.98"/>
<text text-anchor="middle" x="231.45" y="-21.49" font-family="Times,serif" font-size="30.00">gcc</text>
</g>
<!-- gcc&#45;&gt;min -->
<g id="edge12" class="edge">
<title>gcc&#45;&gt;min</title>
<path fill="none" stroke="black" d="M279.52,-35.06C370.34,-45.63 575.8,-64.02 746.11,-38.99"/>
<path fill="none" stroke="black" d="M747.11,-38.99C749.8,-38.54 752.52,-38.13 755.27,-37.76"/>
<polygon fill="black" stroke="black" points="755.79,-41.22 765.31,-36.57 754.97,-34.27 755.79,-41.22"/>
<text text-anchor="middle" x="552.38" y="-60.99" font-family="Times,serif" font-size="30.00"> </text>
</g>
<!-- tsc -->
<g id="node10" class="node">
<title>tsc</title>
<ellipse fill="none" stroke="black" cx="231.45" cy="-256.99" rx="43.27" ry="28.98"/>
<text text-anchor="middle" x="231.45" y="-249.49" font-family="Times,serif" font-size="30.00">tsc</text>
</g>
<!-- tsc&#45;&gt;js -->
<g id="edge8" class="edge">
<title>tsc&#45;&gt;js</title>
<path fill="none" stroke="black" d="M270.16,-243.65C283.1,-237.66 296.88,-229.53 307.11,-218.99 320.14,-205.59 307.14,-186.09 325.11,-180.99"/>
</g>
<!-- npm -->
<g id="node11" class="node">
<title>npm</title>
<ellipse fill="none" stroke="black" cx="59.4" cy="-256.99" rx="59.29" ry="28.98"/>
<text text-anchor="middle" x="59.4" y="-249.49" font-family="Times,serif" font-size="30.00">npm</text>
</g>
<!-- npm&#45;&gt;lessc -->
<g id="edge1" class="edge">
<title>npm&#45;&gt;lessc</title>
<path fill="none" stroke="black" d="M137.79,-256.99C155.41,-250.77 142.77,-281.59 155.79,-294.99 160.88,-300.23 166.84,-304.87 173.14,-308.95"/>
<polygon fill="black" stroke="black" points="171.51,-312.05 181.89,-314.17 175.1,-306.04 171.51,-312.05"/>
</g>
<!-- npm&#45;&gt;rollup -->
<g id="edge2" class="edge">
<title>npm&#45;&gt;rollup</title>
<path fill="none" stroke="black" d="M137.79,-256.99C161.98,-248.45 140.72,-163.74 155.79,-142.99 159.11,-138.43 163.13,-134.38 167.56,-130.79"/>
<polygon fill="black" stroke="black" points="169.83,-133.47 175.94,-124.82 165.77,-127.77 169.83,-133.47"/>
</g>
<!-- npm&#45;&gt;gcc -->
<g id="edge3" class="edge">
<title>npm&#45;&gt;gcc</title>
<path fill="none" stroke="black" d="M118.26,-261.14C124.62,-260.38 130.92,-259.07 136.79,-256.99"/>
<path fill="none" stroke="black" d="M137.79,-256.99C177.78,-242.87 131.94,-102.06 155.79,-66.99 161.5,-58.6 169.64,-51.96 178.46,-46.75"/>
<polygon fill="black" stroke="black" points="180.25,-49.76 187.45,-41.99 176.97,-43.57 180.25,-49.76"/>
</g>
<!-- npm&#45;&gt;tsc -->
<g id="edge4" class="edge">
<title>npm&#45;&gt;tsc</title>
<path fill="none" stroke="black" d="M137.79,-256.99C150.61,-252.47 165.05,-250.93 178.66,-250.9"/>
<polygon fill="black" stroke="black" points="178.78,-254.4 188.86,-251.14 178.95,-247.4 178.78,-254.4"/>
</g>
</g>
</svg>
